<?xml version="1.0" encoding="UTF-8" standalone="no"?>
<svg
   width="208.56mm"
   height="104.023mm"
   viewBox="0 0 208.56 104.023"
   xmlns="http://www.w3.org/2000/svg">
  <rect
     width="7.1437583"
     height="20.137983"
     x="0.26458383"
     y="78.018875"
     ry="1.1696537" />
  <rect
     width="7.1437583"
     height="25.081575"
     x="10.849922"
     y="54.62999"
     ry="1.6912071" />
  <rect
     width="7.1437583"
     height="21.183582"
     x="10.849922"
     y="82.575294"
     ry="1.1696554" />
  <rect
     width="7.1437583"
     height="37.627625"
     x="21.435246"
     y="31.019585"
     ry="1.1696548" />
  <rect
     width="7.1437583"
     height="13.283637"
     x="21.435246"
     y="71.962776"
     ry="1.1696537" />
  <rect
     width="7.1437583"
     height="9.5921707"
     x="21.435246"
     y="94.16671"
     ry="1.6912165" />
  <rect
     width="7.1437583"
     height="27.297859"
     x="32.020584"
     y="14.283441"
     ry="1.1696569" />
  <rect
     width="7.1437583"
     height="36.164299"
     x="32.020584"
     y="44.622707"
     ry="1.1671697" />
  <rect
     width="7.1437583"
     height="18.982641"
     x="42.604641"
     y="9.1332245"
     ry="1.1696559" />
  <rect
     width="7.1437583"
     height="26.286894"
     x="42.607147"
     y="31.043369"
     ry="1.1696548" />
  <rect
     width="7.1437583"
     height="23.854219"
     x="42.607147"
     y="60.778362"
     ry="1.1696548" />
  <rect
     width="7.1437583"
     height="34.631767"
     x="53.191227"
     y="4.9592404"
     ry="1.6912165" />
  <rect
     width="7.1437583"
     height="10.635282"
     x="53.191227"
     y="43.040173"
     ry="1.6912165" />
  <rect
     width="7.1389594"
     height="35.674885"
     x="53.191227"
     y="56.085175"
     ry="1.6912165" />
  <rect
     width="7.1437583"
     height="9.5921707"
     x="63.776531"
     y="0.78717732"
     ry="1.6912165" />
  <rect
     width="7.1437626"
     height="51.3265"
     x="63.776531"
     y="13.30513"
     ry="1.6912165" />
  <rect
     width="7.1437626"
     height="16.372381"
     x="63.776531"
     y="68.082031"
     ry="1.6912165" />
  <rect
     width="7.1437626"
     height="11.678391"
     x="63.776531"
     y="87.907181"
     ry="1.6912165" />
  <rect
     width="7.1437583"
     height="18.463577"
     x="74.361824"
     y="85.295303"
     ry="1.6912165" />
  <rect
     width="7.1437583"
     height="40.368877"
     x="74.361824"
     y="33.131775"
     ry="1.6912165" />
  <rect
     width="7.1437583"
     height="29.413736"
     x="74.361824"
     y="0.2645835"
     ry="1.6912165" />
  <rect
     width="7.1437583"
     height="10.635276"
     x="84.947113"
     y="93.123604"
     ry="1.6912165" />
  <rect
     width="7.1437583"
     height="47.673126"
     x="84.947113"
     y="0.78645617"
     ry="1.6912165" />
  <rect
     width="7.1437583"
     height="21.59042"
     x="84.947113"
     y="51.911167"
     ry="1.6912165" />
  <rect
     width="7.1437583"
     height="15.85083"
     x="95.532501"
     y="2.8728452"
     ry="1.6912165" />
  <rect
     width="7.1437583"
     height="51.32402"
     x="95.532501"
     y="22.172964"
     ry="1.6912165" />
  <rect
     width="7.1437583"
     height="30.980885"
     x="106.11585"
     y="3.9166346"
     ry="1.6912165" />
  <rect
     width="7.1437583"
     height="26.286894"
     x="106.11585"
     y="38.348297"
     ry="1.6912165" />
  <rect
     width="7.1437583"
     height="13.76461"
     x="106.11585"
     y="68.080299"
     ry="1.6912165" />
  <rect
     width="7.1437583"
     height="46.108463"
     x="116.63663"
     y="5.4834313"
     ry="1.6912165" />
  <rect
     width="7.1437583"
     height="37.239548"
     x="116.63663"
     y="55.041924"
     ry="1.6912165" />
  <rect
     width="7.1437583"
     height="21.590418"
     x="127.15025"
     y="3.9174025"
     ry="1.6912165" />
  <rect
     width="7.1437583"
     height="56.544529"
     x="127.15025"
     y="28.957279"
     ry="1.6912165" />
  <rect
     width="7.1437583"
     height="13.243057"
     x="127.15025"
     y="88.949715"
     ry="1.6912165" />
  <rect
     width="7.1437583"
     height="17.939522"
     x="137.73361"
     y="85.819359"
     ry="1.6912165" />
  <rect
     width="7.1437583"
     height="13.245543"
     x="137.73361"
     y="41.477528"
     ry="1.6912165" />
  <rect
     width="7.1437583"
     height="34.631771"
     x="137.73361"
     y="3.3952239"
     ry="1.6912165" />
  <rect
     width="7.1437583"
     height="42.97913"
     x="148.46135"
     y="6.0050244"
     ry="1.6912165" />
  <rect
     width="7.1437583"
     height="9.5921707"
     x="148.46135"
     y="94.16671"
     ry="1.6912165" />
  <rect
     width="7.1437583"
     height="13.245537"
     x="158.8972"
     y="9.135335"
     ry="1.6912165" />
  <rect
     width="7.1437583"
     height="22.111969"
     x="158.8972"
     y="25.826376"
     ry="1.6912165" />
  <rect
     width="7.1437583"
     height="9.5921707"
     x="169.61594"
     y="11.739924"
     ry="1.6912165" />
  <rect
     width="7.1437583"
     height="9.0706158"
     x="169.61594"
     y="24.260721"
     ry="1.6912165" />
  <rect
     width="7.1437583"
     height="12.7215"
     x="169.61594"
     y="36.258377"
     ry="1.6912165" />
  <rect
     width="7.1437583"
     height="35.674881"
     x="180.1993"
     y="14.871916"
     ry="1.6912165" />
  <rect
     width="7.1437583"
     height="25.241301"
     x="190.71689"
     y="24.260136"
     ry="1.6912165" />
  <rect
     width="7.1437583"
     height="9.5921707"
     x="201.15167"
     y="36.259323"
     ry="1.6912165" />
</svg>
